<svg viewBox="0 0 24 24"
  xmlns="http://www.w3.org/2000/svg">
  <style>
    g path {
      fill: black;
    }
    @media (prefers-color-scheme: dark) {
      g path {
        fill: white;
      }
    }
  </style>
  <path fill="none" d="M0 0h24v24H0V0Z"/>
  <g>
    <path fill="black" d="M12 2C6.48 2 2 6.48 2 12c0 5.52 4.48 10 10 10s10-4.48 10-10 -4.48-10-10-10Zm3.61 6.34c1.07 0 1.93.86 1.93 1.93 0 1.07-.86 1.93-1.93 1.93 -1.07 0-1.93-.86-1.93-1.93 -.01-1.07.86-1.93 1.93-1.93Zm-6-1.58c1.3 0 2.36 1.06 2.36 2.36 0 1.3-1.06 2.36-2.36 2.36 -1.3 0-2.36-1.06-2.36-2.36 0-1.31 1.05-2.36 2.36-2.36Zm0 9.13v3.75c-2.4-.75-4.3-2.6-5.14-4.96 1.05-1.12 3.67-1.69 5.14-1.69 .53 0 1.2.08 1.9.22 -1.64.87-1.9 2.02-1.9 2.68ZM12 20c-.27 0-.53-.01-.79-.04v-4.07c0-1.42 2.94-2.13 4.4-2.13 1.07 0 2.92.39 3.84 1.15C18.28 17.88 15.39 20 12 20Z"/>
  </g>
</svg>